<?xml version="1.0" encoding="UTF-8" standalone="no"?>
<svg width="234px" height="150px" viewBox="0 0 234 150" version="1.1" xmlns="http://www.w3.org/2000/svg" xmlns:xlink="http://www.w3.org/1999/xlink">
    <!-- Generator: Sketch 41 (35326) - http://www.bohemiancoding.com/sketch -->
    <title>laptop</title>
    <desc>Created with Sketch.</desc>
    <defs></defs>
    <g id="Symbols" stroke="none" stroke-width="1" fill="none" fill-rule="evenodd">
        <g id="laptop" fill="#F8F1FF">
            <g id="Group-3">
                <g id="noun_356304_cc" transform="translate(94.500000, 35.500000)">
                    <g id="Group">
                        <path d="M42.0664193,19.1423529 C41.2538436,18.5188235 40.2537504,18.0823529 39.1286456,18.0823529 L36.8159301,18.0823529 L36.8159301,9.97647059 C36.8159301,4.48941176 32.3155108,0 26.8149983,0 L17.6266423,0 C12.1261298,0 7.62571048,4.48941176 7.62571048,9.97647059 L7.62571048,18.0823529 L4.62543095,18.0823529 C2.125198,18.0823529 0.0625058236,20.14 0.0625058236,22.6341176 L0.0625058236,48.3858824 L0.0625058236,48.8223529 C0.125011647,49.1341176 0.125011647,49.4458824 0.250023294,49.6952941 C0.312529118,50.0070588 0.437540765,50.2564706 0.625058236,50.5058824 C0.812575707,50.88 1.12510483,51.2541176 1.43763394,51.5658824 C2.25020965,52.3764706 3.4378203,52.9376471 4.68793677,52.9376471 L39.2536572,52.9376471 C40.3787621,52.9376471 41.3788552,52.5635294 42.1914309,51.8776471 C43.1915241,51.0670588 43.8790882,49.7576471 43.8790882,48.3235294 L43.8790882,22.6341176 C43.6915707,21.2623529 43.0665125,19.9529412 42.0664193,19.1423529 Z M23.0646489,37.1 L23.0646489,41.1529412 C23.0646489,41.8388235 22.5020965,42.4623529 21.7520266,42.4623529 C21.0019567,42.4623529 20.4394043,41.9011765 20.4394043,41.1529412 L20.4394043,36.9752941 C19.126782,36.4141176 18.1891947,35.1047059 18.1891947,33.6082353 C18.1891947,31.6129412 19.8143461,29.9917647 21.8145324,29.9917647 C23.8147188,29.9917647 25.4398702,31.6129412 25.4398702,33.6082353 C25.502376,35.2294118 24.5022829,36.6011765 23.0646489,37.1 Z M31.8154642,18.0823529 L12.6261764,18.0823529 L12.6261764,9.97647059 C12.6261764,7.23294118 14.876386,4.98823529 17.6266423,4.98823529 L26.8149983,4.98823529 C29.5652546,4.98823529 31.8154642,7.23294118 31.8154642,9.97647059 L31.8154642,18.0823529 Z" id="Shape"></path>
                    </g>
                </g>
                <g id="noun_700105_cc">
                    <g id="Group">
                        <polygon id="Shape" points="29.2009615 124.214423 29.2009615 115.560577 204.363462 115.560577 204.363462 124.214423"></polygon>
                        <path d="M4.32692308,149.091346 C2.58173077,149.091346 1.00096154,148.038462 0.328846154,146.414423 L0.328846154,146.414423 C-0.3375,144.799038 0.0288461538,142.935577 1.26923077,141.700962 L1.26923077,141.700962 L24.8740385,118.090385 L24.8740385,4.32692308 C24.8740385,3.1875 25.3384615,2.07403846 26.1432692,1.26346154 L26.1432692,1.26346154 C26.9451923,0.458653846 28.0615385,0 29.2067308,0 L29.2067308,0 L204.360577,0 C205.5,0 206.616346,0.458653846 207.424038,1.26923077 L207.424038,1.26923077 C208.225962,2.07403846 208.690385,3.19038462 208.690385,4.32692308 L208.690385,4.32692308 L208.690385,14.6884615 L208.690385,118.090385 L232.295192,141.700962 C233.535577,142.935577 233.904808,144.799038 233.235577,146.414423 L233.235577,146.414423 C232.563462,148.038462 230.985577,149.091346 229.2375,149.091346 L229.2375,149.091346 L4.32692308,149.091346 L4.32692308,149.091346 Z M33.5307692,119.8875 C33.5307692,121.026923 33.0663462,122.146154 32.2615385,122.950962 L32.2615385,122.950962 L14.7778846,140.434615 L218.786538,140.434615 L201.3,122.950962 C200.492308,122.140385 200.033654,121.026923 200.033654,119.8875 L200.033654,119.8875 L200.033654,14.6884615 L200.033654,8.65384615 L33.5307692,8.65384615 L33.5307692,119.8875 L33.5307692,119.8875 Z" id="Shape"></path>
                        <path d="M89.3134615,135.625962 C88.5173077,135.625962 87.8740385,134.976923 87.8740385,134.180769 L87.8740385,134.180769 C87.8740385,133.384615 88.5173077,132.741346 89.3134615,132.741346 L89.3134615,132.741346 L145.8,132.741346 C146.590385,132.741346 147.239423,133.384615 147.239423,134.180769 L147.239423,134.180769 C147.239423,134.976923 146.590385,135.625962 145.8,135.625962 L145.8,135.625962 L89.3134615,135.625962 L89.3134615,135.625962 Z" id="Shape"></path>
                    </g>
                </g>
            </g>
        </g>
    </g>
</svg>