<?xml version="1.0" encoding="UTF-8" standalone="no"?>
<svg width="83px" height="150px" viewBox="0 0 83 150" version="1.1" xmlns="http://www.w3.org/2000/svg" xmlns:xlink="http://www.w3.org/1999/xlink">
    <!-- Generator: Sketch 41 (35326) - http://www.bohemiancoding.com/sketch -->
    <title>iphone</title>
    <desc>Created with Sketch.</desc>
    <defs></defs>
    <g id="Symbols" stroke="none" stroke-width="1" fill="none" fill-rule="evenodd">
        <g id="iphone" fill="#F8F1FF">
            <g id="Group-4">
                <g id="noun_356304_cc" transform="translate(28.000000, 55.000000)">
                    <g id="Group">
                        <path d="M25.8134846,11.5576471 C25.3148586,11.1811765 24.701165,10.9176471 24.0107598,10.9176471 L22.5915935,10.9176471 L22.5915935,6.02352941 C22.5915935,2.71058824 19.8299725,0 16.4546581,0 L10.8163487,0 C7.44103418,0 4.67941325,2.71058824 4.67941325,6.02352941 L4.67941325,10.9176471 L2.83833263,10.9176471 C1.30409877,10.9176471 0.0383558463,12.16 0.0383558463,13.6658824 L0.0383558463,29.2141176 L0.0383558463,29.4776471 C0.0767116926,29.6658824 0.0767116926,29.8541176 0.153423385,30.0047059 C0.191779232,30.1929412 0.268490924,30.3435294 0.383558463,30.4941176 C0.498626002,30.72 0.690405234,30.9458824 0.882184465,31.1341176 C1.38081047,31.6235294 2.10957155,31.9623529 2.87668847,31.9623529 L24.0874715,31.9623529 C24.7778767,31.9623529 25.3915703,31.7364706 25.8901963,31.3223529 C26.5038898,30.8329412 26.9258041,30.0423529 26.9258041,29.1764706 L26.9258041,13.6658824 C26.8107366,12.8376471 26.4271781,12.0470588 25.8134846,11.5576471 Z M14.1533073,22.4 L14.1533073,24.8470588 C14.1533073,25.2611765 13.8081047,25.6376471 13.3478345,25.6376471 C12.8875644,25.6376471 12.5423617,25.2988235 12.5423617,24.8470588 L12.5423617,22.3247059 C11.736889,21.9858824 11.1615513,21.1952941 11.1615513,20.2917647 C11.1615513,19.0870588 12.1588033,18.1082353 13.3861904,18.1082353 C14.6135774,18.1082353 15.6108294,19.0870588 15.6108294,20.2917647 C15.6491853,21.2705882 15.0354918,22.0988235 14.1533073,22.4 Z M19.5231258,10.9176471 L7.74788095,10.9176471 L7.74788095,6.02352941 C7.74788095,4.36705882 9.12869142,3.01176471 10.8163487,3.01176471 L16.4546581,3.01176471 C18.1423153,3.01176471 19.5231258,4.36705882 19.5231258,6.02352941 L19.5231258,10.9176471 Z" id="Shape"></path>
                    </g>
                </g>
                <g id="noun_674231_cc">
                    <g id="Group">
                        <g>
                            <path d="M72.9591061,0 L9.90802676,0 C4.44420036,0 0,4.45843373 0,9.93975904 L0,140.060241 C0,145.539759 4.44420036,150 9.90802676,150 L72.9591061,150 C78.421131,150 82.8671329,145.539759 82.8671329,140.060241 L82.8671329,9.93975904 C82.8671329,4.45843373 78.421131,0 72.9591061,0 Z M9.90802676,5.42168675 L72.9591061,5.42168675 C75.4433186,5.42168675 77.4627546,7.44939759 77.4627546,9.93975904 L77.4627546,18.0722892 L5.40437823,18.0722892 L5.40437823,9.93975904 C5.40437823,7.44939759 7.42561569,5.42168675 9.90802676,5.42168675 Z M77.4627546,23.4939759 L77.4627546,117.46988 L5.40437823,117.46988 L5.40437823,23.4939759 L77.4627546,23.4939759 Z M72.9591061,144.578313 L9.90802676,144.578313 C7.42561569,144.578313 5.40437823,142.55241 5.40437823,140.060241 L5.40437823,122.891566 L77.4627546,122.891566 L77.4627546,140.060241 C77.4627546,142.55241 75.4433186,144.578313 72.9591061,144.578313 Z" id="Shape"></path>
                            <path d="M42.184775,125.000602 C37.4667528,125.000602 33.6278428,128.851807 33.6278428,133.58494 C33.6278428,138.318072 37.4667528,142.169277 42.184775,142.169277 C46.9027972,142.169277 50.7417072,138.318072 50.7417072,133.58494 C50.7417072,128.851807 46.9027972,125.000602 42.184775,125.000602 Z M42.184775,136.74759 C40.4463667,136.74759 39.032221,135.328916 39.032221,133.58494 C39.032221,131.840964 40.4463667,130.422289 42.184775,130.422289 C43.9231833,130.422289 45.337329,131.840964 45.337329,133.58494 C45.337329,135.328916 43.9231833,136.74759 42.184775,136.74759 Z" id="Shape"></path>
                            <path d="M30.62481,14.4578313 L52.2423229,14.4578313 C53.7339313,14.4578313 54.944512,13.2451807 54.944512,11.746988 C54.944512,10.2487952 53.7339313,9.03614458 52.2423229,9.03614458 L30.62481,9.03614458 C29.1314001,9.03614458 27.9226209,10.2487952 27.9226209,11.746988 C27.9226209,13.2451807 29.1314001,14.4578313 30.62481,14.4578313 Z" id="Shape"></path>
                            <ellipse id="Oval" cx="22.5560733" cy="11.7849398" rx="2.68417452" ry="2.69277108"></ellipse>
                        </g>
                    </g>
                </g>
            </g>
        </g>
    </g>
</svg>